<?xml version="1.0" encoding="UTF-8"?>
<!DOCTYPE svg PUBLIC "-//W3C//DTD SVG 1.0//EN" "http://www.w3.org/TR/2001/REC-SVG-20010904/DTD/svg10.dtd">
<!-- Creator: CorelDRAW -->
<svg xmlns="http://www.w3.org/2000/svg" xml:space="preserve" width="50.188mm" height="50.188mm" version="1.0" style="shape-rendering:geometricPrecision; text-rendering:geometricPrecision; image-rendering:optimizeQuality; fill-rule:evenodd; clip-rule:evenodd"
viewBox="0 0 5010.95 5010.95"
 xmlns:xlink="http://www.w3.org/1999/xlink"
 xmlns:xodm="http://www.corel.com/coreldraw/odm/2003">
 <defs>
  <style type="text/css">
   <![CDATA[
    .fil0 {fill:black}
    .fil1 {fill:white;fill-rule:nonzero}
   ]]>
  </style>
 </defs>
 <g id="Camada_x0020_1">
  <metadata id="CorelCorpID_0Corel-Layer"/>
  <circle class="fil0" cx="2505.48" cy="2505.48" r="2505.48"/>
  <path class="fil1" d="M2505.47 297c1219.72,0 2208.48,988.76 2208.48,2208.47 0,1219.72 -988.76,2208.48 -2208.48,2208.48 -1219.71,0 -2208.47,-988.76 -2208.47,-2208.48 0,-1219.71 988.76,-2208.47 2208.47,-2208.47zm-1104.85 3797.59c-37.81,-11.16 -75.39,-22.99 -112.71,-35.44 90.51,71.02 187.43,134.21 289.66,188.76 -10.19,-136.87 -22.73,-293.12 -22.73,-293.12 0,0 543.54,83.2 812.84,0 0,0 245.84,290.79 511.88,488.97 291.37,-55.93 559.98,-175.84 790.58,-344.66 66.94,-115.11 263.05,-450.03 304.4,-655.09 0,0 200.85,-41.19 428.47,-393.32 49.66,-173.18 76.32,-356.07 76.32,-545.22 0,-139.6 -14.58,-275.8 -42.14,-407.21 -97.12,-156.47 -434.92,-345.26 -434.92,-345.26 -11.88,-142.57 -277.24,-724.72 -277.24,-724.72 27.83,-4.64 53.75,-8.01 77.87,-10.28 -319.25,-278.7 -729.07,-456.21 -1179.5,-482.75 164.38,107.81 270,215.82 270,215.82 -138.61,55.44 -475.23,459.38 -475.23,459.38 -261.37,-106.93 -835.62,-75.26 -835.62,-75.26 -4.43,-131.06 14.8,-283.28 32.55,-391.69 -509.58,258.03 -892.02,730.6 -1028.69,1298.9l473.41 -222.07c0,0 237.61,681.15 277.21,732.64 0,0 -269.3,621.69 -277.21,696.93 0,0 -410.98,-186.86 -471.28,-312.79l-9.52 -0.41c54.84,246.04 155.52,474.81 292.75,676.76 22.48,6.03 45.12,11.71 67.9,16.96 126.64,179.35 282.65,336.43 460.96,464.18zm756.17 -1494.11l516.81 695.09c0,0 843.52,-237.77 843.52,-261.41 0,-23.87 0,-843.58 0,-843.58l-778.19 -320.77 -582.14 730.67z"/>
 </g>
</svg>
