<?xml version="1.0" encoding="UTF-8"?>
<!DOCTYPE svg PUBLIC "-//W3C//DTD SVG 1.0//EN" "http://www.w3.org/TR/2001/REC-SVG-20010904/DTD/svg10.dtd">
<!-- Creator: CorelDRAW -->
<svg xmlns="http://www.w3.org/2000/svg" xml:space="preserve" width="111.141mm" height="111.141mm" version="1.0" style="shape-rendering:geometricPrecision; text-rendering:geometricPrecision; image-rendering:optimizeQuality; fill-rule:evenodd; clip-rule:evenodd"
viewBox="0 0 11106.25 11106.25"
 xmlns:xlink="http://www.w3.org/1999/xlink"
 xmlns:xodm="http://www.corel.com/coreldraw/odm/2003">
 <defs>
  <style type="text/css">
   <![CDATA[
    .fil1 {fill:black}
    .fil0 {fill:white}
   ]]>
  </style>
 </defs>
 <g id="Camada_x0020_1">
  <metadata id="CorelCorpID_0Corel-Layer"/>
  <g id="_2034010521680">
   <circle class="fil0" cx="5553.12" cy="5553.12" r="5553.12"/>
   <path class="fil1" d="M5507.39 10554.64c517.07,-644.88 822.6,-312.88 1931.54,-784.37 182.69,-77.68 460.9,-243.55 622.42,-298.02 40.4,39.1 154.56,251.13 174.22,308.57 -655.55,456.31 -1940.1,839.71 -2728.18,773.81zm-3297.21 -2320.15c498.89,282.83 1358.1,546.36 1996.98,618.18 222.34,24.99 151.38,33.99 393.12,266.07l982.33 1006.98c-559.36,439.07 -418.66,449 -1006.98,335.61 -799.43,-154.07 -1804.75,-623.16 -2338.56,-1172.66 -35.5,-36.54 -59.62,-52.88 -101.38,-85 -161.46,-124.14 -223.42,-254.31 -361.6,-363.51 57,-152.03 395.6,-537.61 436.09,-605.67zm6247.71 1386.85c-198.91,-247.65 -191.58,-310.47 -148.93,-467.16 83.83,-307.96 362.84,-1515.2 443.59,-1616.3l1192.25 -1399.34c36.42,-45 40.47,-38.81 72.85,-69.12 117.72,64.56 342.85,138.31 492.04,207.24 -23.42,761.37 -780.28,2266.38 -1328.96,2722.01 -122.73,101.92 -65.64,109.53 -354.11,332.96 -121.94,94.46 -181.04,181.18 -368.72,289.7zm-5393.88 -5636.43c158.19,-64.79 1619.21,364.76 1824.65,433.14 582.23,193.79 479.96,153.04 585.26,546.71l469.26 1800.94c92,337.15 96.09,213.17 -177.96,589.1 -214.06,293.64 -471.35,469.75 -681.13,718.83 -71.24,84.57 -66.35,80.57 -149.49,140.35 -100.31,72.14 -278.69,282.11 -472.35,372.91 -304.8,142.89 -1482.46,-318.46 -1803.35,-437.11 -387.57,-143.3 -408.56,-212.86 -584.39,-548.07 -123.8,-236 -244.04,-523.47 -333.09,-802.26 -324.12,-1014.77 -240.49,-1023.95 210.82,-1646.79 160.02,-220.82 959.5,-1105.38 1111.78,-1167.75zm4086.77 -1143.38c36.26,-26.01 -24.2,-31.52 97.77,-17.79 336.29,37.84 1270.97,348.85 1549.47,488.14 463.7,231.93 472.08,197.64 557.24,547.3l418.64 1773.17c48.14,207.62 -6.3,271.03 -105.9,390.49l-736.16 875.3c-91.33,108.2 -154.63,199.29 -253.91,302.13 -112.79,116.83 -146.73,156.05 -378.32,143.79 -645.61,-34.18 -1267.03,-164.85 -1864.76,-328.29 -251.72,-68.83 -181.01,-44.28 -246.97,-298.75l-341.79 -1297.92c-290.82,-1102.5 -362.5,-768.86 263.96,-1447.25 56.55,-61.24 75.92,-106.72 127.6,-164.77 47.46,-53.3 87.79,-74.48 135.41,-127.25 183.44,-203.22 587,-701.52 777.7,-838.31zm-6595.58 2552.11c-49.21,-305.32 154.49,-1121.86 238.43,-1400.43 58.89,-195.42 151.37,-403.99 238.63,-580.05 179.55,-362.26 506.32,-925.83 807.91,-1199.67 78.89,-71.64 112.64,-133.14 186.46,-210.94 74.19,-78.18 150.24,-120.68 221.83,-201.75 181.5,-205.56 147.99,-192.32 750.37,108.66 -0.71,145.47 -83.29,1833.36 -133.63,1910.78 -2.34,3.59 -740.37,705.21 -841.87,849.84 -140.02,199.49 -613.71,735.98 -722.2,975.58l-745.93 -252.02zm5708.47 -4801.36c947.93,132.15 1771.18,542.06 2435.53,1071.48 354.9,282.83 500.62,461.09 786.46,798.63 35.73,42.2 40.08,43.04 73.67,84.5 51.02,62.99 108.98,129.14 140.56,203.13 -81.49,179.4 -249.51,377 -312.03,559.98 -152.44,-31.9 -355.59,-180.09 -519.46,-233.69 -283.61,-92.76 -1537.72,-476.15 -1624.04,-541.15l-953.36 -1055.28c-124.42,-143.68 -320.47,-289.27 -479.56,-421.78l452.23 -465.81zm-3594.87 893.45c87.31,-107.4 460.98,-313.06 631.2,-401.13 774.69,-400.83 1687,-588.38 2576.33,-522.36 -145.62,470.42 -1154.75,614.38 -1530.64,741.64 -1541.38,521.86 -1037.58,383.86 -1676.89,181.85zm2374.01 -1158.9c-874.04,59.74 -1926.7,474.2 -2591.88,988.33 -75.66,58.48 -135.31,96.04 -197.21,147.11 -81.9,67.57 -86.82,71.62 -166.45,150.44 -67.92,67.23 -120.62,88.67 -191.1,154.03l-597.13 698.55c-96.6,132.96 -173.47,247.51 -264.41,397.74 -1131.68,1869.33 -942.02,4275.06 426.05,5984.14 90.74,113.36 202.78,252.92 303.59,359.06l519.68 458.88c67.81,54.7 105.11,91.58 175.12,141.62 404.25,289.02 801.47,509.26 1296.65,688.27 1691.01,611.3 3732.04,288.87 5111.4,-858.49 135.68,-112.86 224.4,-185.04 345.52,-315.79 339.78,-366.77 204.85,-171.5 606.46,-689.94 752.49,-971.39 1080.16,-2346.95 970.39,-3580.74 -67.09,-754.23 -298.74,-1399.5 -614.37,-2006.15 -137.48,-264.26 -356.01,-587.67 -516.35,-780.01 -98.86,-118.59 -207.37,-259.5 -315.28,-346.21l-504.53 -474.9c-390.57,-325.06 -982.37,-642.71 -1475.83,-826 -762.97,-283.41 -1466.83,-348.27 -2320.31,-289.93z"/>
  </g>
 </g>
</svg>
