<?xml version="1.0" encoding="UTF-8"?>
<!DOCTYPE svg PUBLIC "-//W3C//DTD SVG 1.0//EN" "http://www.w3.org/TR/2001/REC-SVG-20010904/DTD/svg10.dtd">
<!-- Creator: CorelDRAW -->
<svg xmlns="http://www.w3.org/2000/svg" xml:space="preserve" width="58.5138mm" height="7.2494mm" version="1.0" style="shape-rendering:geometricPrecision; text-rendering:geometricPrecision; image-rendering:optimizeQuality; fill-rule:evenodd; clip-rule:evenodd"
viewBox="0 0 2062.02 255.47"
 xmlns:xlink="http://www.w3.org/1999/xlink"
 xmlns:xodm="http://www.corel.com/coreldraw/odm/2003">
 <defs>
  <style type="text/css">
   <![CDATA[
    .fil1 {fill:#16A34A;fill-rule:nonzero}
    .fil0 {fill:white;fill-rule:nonzero}
   ]]>
  </style>
 </defs>
 <g id="Camada_x0020_1">
  <metadata id="CorelCorpID_0Corel-Layer"/>
  <g id="_1363207915456">
   <path class="fil0" d="M66.8 252.64l0 -178.48 -66.8 0 0 -41.48 181.93 0 0 41.48 -66.81 0 0 178.48 -48.32 0zm197.74 2.51c-17.1,0 -32.26,-3.77 -45.48,-11.31 -13.22,-7.54 -23.66,-17.86 -31.32,-30.95 -7.65,-13.09 -11.48,-28.02 -11.48,-44.78 0,-16.97 3.83,-32 11.48,-45.09 7.66,-13.09 18.1,-23.36 31.32,-30.79 13.22,-7.44 28.38,-11.16 45.48,-11.16 16.9,0 32.02,3.72 45.34,11.16 13.32,7.44 23.76,17.65 31.31,30.64 7.56,12.99 11.33,28.07 11.33,45.25 0,16.76 -3.78,31.68 -11.33,44.78 -7.56,13.1 -18,23.41 -31.31,30.95 -13.32,7.54 -28.44,11.31 -45.34,11.31zm0 -40.22c7.75,0 14.72,-1.89 20.88,-5.66 6.16,-3.77 11.03,-9.17 14.61,-16.18 3.58,-7.02 5.37,-15.35 5.37,-24.98 0,-9.85 -1.79,-18.23 -5.37,-25.14 -3.58,-6.91 -8.45,-12.25 -14.61,-16.02 -6.16,-3.77 -13.13,-5.66 -20.88,-5.66 -7.75,0 -14.71,1.89 -20.88,5.66 -6.16,3.77 -11.09,9.11 -14.76,16.02 -3.68,6.91 -5.52,15.29 -5.52,25.14 0,9.63 1.84,17.96 5.52,24.98 3.68,7.02 8.6,12.41 14.76,16.18 6.16,3.77 13.12,5.66 20.88,5.66zm119 37.71l0 -169.05 44.44 0 0 47.76 -6.26 -13.82c4.77,-11.94 12.43,-21 22.97,-27.18 10.54,-6.18 23.36,-9.27 38.47,-9.27l0 45.25c-1.99,-0.21 -3.78,-0.37 -5.37,-0.47 -1.59,-0.11 -3.28,-0.16 -5.07,-0.16 -12.73,0 -23.01,3.82 -30.87,11.47 -7.85,7.65 -11.78,19.53 -11.78,35.66l0 79.81 -46.52 0zm203.4 2.51c-17.3,0 -32.71,-3.72 -46.23,-11.15 -13.53,-7.44 -24.11,-17.75 -31.77,-30.95 -7.65,-13.2 -11.48,-28.18 -11.48,-44.93 0,-16.97 3.83,-32 11.48,-45.09 7.65,-13.09 18.24,-23.36 31.77,-30.79 13.52,-7.44 28.93,-11.16 46.23,-11.16 16.9,0 31.61,3.72 44.14,11.16 12.52,7.44 21.77,18.07 27.73,31.89l-36.09 20.43c-4.18,-7.96 -9.4,-13.82 -15.66,-17.6 -6.27,-3.77 -13.08,-5.66 -20.43,-5.66 -7.95,0 -15.11,1.89 -21.47,5.66 -6.36,3.77 -11.39,9.11 -15.06,16.02 -3.68,6.91 -5.52,15.29 -5.52,25.14 0,9.85 1.84,18.23 5.52,25.14 3.68,6.91 8.7,12.26 15.06,16.03 6.36,3.77 13.52,5.66 21.47,5.66 7.35,0 14.17,-1.83 20.43,-5.5 6.26,-3.66 11.48,-9.58 15.66,-17.75l36.09 20.74c-5.97,13.62 -15.21,24.15 -27.73,31.58 -12.53,7.44 -27.24,11.15 -44.14,11.15zm176.26 0c-18.29,0 -34.34,-3.77 -48.17,-11.31 -13.82,-7.54 -24.5,-17.86 -32.06,-30.95 -7.56,-13.09 -11.33,-28.02 -11.33,-44.78 0,-16.97 3.73,-32 11.19,-45.09 7.45,-13.09 17.64,-23.36 30.57,-30.79 12.92,-7.44 27.54,-11.16 43.84,-11.16 15.71,0 29.87,3.51 42.5,10.53 12.63,7.02 22.62,17.07 29.97,30.17 7.36,13.09 11.04,28.75 11.04,46.97 0,1.89 -0.1,4.03 -0.3,6.44 -0.2,2.41 -0.39,4.66 -0.6,6.76l-130.33 0 0 -28.59 105.87 0 -17.89 8.48c0,-8.8 -1.69,-16.44 -5.07,-22.94 -3.38,-6.49 -8.05,-11.57 -14.01,-15.24 -5.97,-3.67 -12.92,-5.5 -20.88,-5.5 -7.95,0 -14.97,1.83 -21.03,5.5 -6.06,3.66 -10.78,8.8 -14.16,15.4 -3.38,6.6 -5.07,14.4 -5.07,23.41l0 7.54c0,9.22 1.94,17.33 5.81,24.35 3.88,7.02 9.35,12.36 16.4,16.03 7.06,3.66 15.36,5.5 24.9,5.5 8.55,0 16.06,-1.36 22.52,-4.08 6.46,-2.72 12.38,-6.81 17.74,-12.25l24.76 28.28c-7.35,8.8 -16.6,15.55 -27.74,20.27 -11.13,4.72 -23.96,7.07 -38.47,7.07zm177.46 0c-15.11,0 -28.73,-3.61 -40.86,-10.84 -12.13,-7.23 -21.72,-17.33 -28.78,-30.32 -7.06,-12.99 -10.59,-28.28 -10.59,-45.88 0,-17.81 3.53,-33.2 10.59,-46.19 7.06,-12.99 16.65,-23.04 28.78,-30.17 12.13,-7.12 25.75,-10.68 40.86,-10.68 13.52,0 25.35,3.14 35.49,9.43 10.14,6.29 18,15.82 23.56,28.6 5.57,12.78 8.35,29.12 8.35,49.02 0,19.69 -2.69,35.98 -8.05,48.86 -5.37,12.88 -13.07,22.47 -23.11,28.75 -10.04,6.29 -22.12,9.43 -36.24,9.43zm8.05 -40.22c7.56,0 14.41,-1.89 20.58,-5.66 6.16,-3.77 11.08,-9.17 14.76,-16.18 3.68,-7.02 5.52,-15.35 5.52,-24.98 0,-9.85 -1.84,-18.23 -5.52,-25.14 -3.68,-6.91 -8.6,-12.25 -14.76,-16.02 -6.17,-3.77 -13.02,-5.66 -20.58,-5.66 -7.75,0 -14.72,1.89 -20.88,5.66 -6.16,3.77 -11.08,9.11 -14.76,16.02 -3.68,6.91 -5.52,15.29 -5.52,25.14 0,9.63 1.84,17.96 5.52,24.98 3.68,7.02 8.6,12.41 14.76,16.18 6.16,3.77 13.12,5.66 20.88,5.66zm42.05 37.71l0 -34.56 0.9 -50.28 -2.98 -49.96 0 -98.35 46.52 0 0 233.16 -44.44 0zm163.73 2.51c-17.1,0 -32.26,-3.77 -45.48,-11.31 -13.22,-7.54 -23.66,-17.86 -31.32,-30.95 -7.65,-13.09 -11.48,-28.02 -11.48,-44.78 0,-16.97 3.83,-32 11.48,-45.09 7.66,-13.09 18.1,-23.36 31.32,-30.79 13.22,-7.44 28.38,-11.16 45.48,-11.16 16.9,0 32.02,3.72 45.34,11.16 13.32,7.44 23.76,17.65 31.31,30.64 7.56,12.99 11.33,28.07 11.33,45.25 0,16.76 -3.78,31.68 -11.33,44.78 -7.56,13.1 -18,23.41 -31.31,30.95 -13.32,7.54 -28.44,11.31 -45.34,11.31zm0 -40.22c7.75,0 14.72,-1.89 20.88,-5.66 6.16,-3.77 11.03,-9.17 14.61,-16.18 3.58,-7.02 5.37,-15.35 5.37,-24.98 0,-9.85 -1.79,-18.23 -5.37,-25.14 -3.58,-6.91 -8.45,-12.25 -14.61,-16.02 -6.16,-3.77 -13.13,-5.66 -20.88,-5.66 -7.75,0 -14.71,1.89 -20.88,5.66 -6.16,3.77 -11.09,9.11 -14.76,16.02 -3.68,6.91 -5.52,15.29 -5.52,25.14 0,9.63 1.84,17.96 5.52,24.98 3.68,7.02 8.6,12.41 14.76,16.18 6.16,3.77 13.12,5.66 20.88,5.66zm119 37.71l0 -169.05 44.44 0 0 47.76 -6.26 -13.82c4.77,-11.94 12.43,-21 22.97,-27.18 10.54,-6.18 23.36,-9.27 38.47,-9.27l0 45.25c-1.99,-0.21 -3.77,-0.37 -5.37,-0.47 -1.59,-0.11 -3.28,-0.16 -5.07,-0.16 -12.73,0 -23.01,3.82 -30.87,11.47 -7.85,7.65 -11.78,19.53 -11.78,35.66l0 79.81 -46.52 0z"/>
   <path class="fil1" d="M1424.07 252.64l0 -219.96 93.35 0c30.42,0 53.83,7.28 70.24,21.84 16.41,14.56 24.61,34.4 24.61,59.54 0,16.55 -3.78,30.85 -11.34,42.89 -7.56,12.04 -18.24,21.26 -32.06,27.65 -13.82,6.39 -30.27,9.59 -49.36,9.59l-62.63 0 26.25 -26.08 0 84.53 -59.05 0zm129.14 0l-51.9 -80.13 62.93 0 52.19 80.13 -63.22 0zm-70.09 -77.93l-26.25 -28.59 59.05 0c12.32,0 21.52,-2.83 27.59,-8.48 6.06,-5.66 9.1,-13.51 9.1,-23.57 0,-10.27 -3.03,-18.23 -9.1,-23.88 -6.07,-5.66 -15.26,-8.48 -27.59,-8.48l-59.05 0 26.25 -28.6 0 121.61zm256.19 77.93l0 -31.74 -3.88 -7.85 0 -58.45c0,-9.43 -2.74,-16.71 -8.2,-21.84 -5.47,-5.13 -14.17,-7.7 -26.1,-7.7 -7.75,0 -15.6,1.31 -23.56,3.93 -7.95,2.62 -14.72,6.23 -20.28,10.84l-19.09 -40.54c9.14,-6.28 20.13,-11.15 32.96,-14.61 12.82,-3.46 25.6,-5.19 38.32,-5.19 26.25,0 46.58,6.34 60.99,19.01 14.42,12.68 21.62,32.52 21.62,59.54l0 94.58 -52.79 0zm-47.72 2.83c-12.92,0 -23.86,-2.3 -32.81,-6.91 -8.95,-4.61 -15.76,-10.89 -20.43,-18.85 -4.67,-7.96 -7.01,-16.87 -7.01,-26.71 0,-10.47 2.53,-19.53 7.6,-27.18 5.07,-7.64 12.87,-13.51 23.41,-17.6 10.54,-4.08 24.16,-6.13 40.86,-6.13l38.17 0 0 31.11 -30.42 0c-9.15,0 -15.56,1.57 -19.24,4.71 -3.68,3.14 -5.52,7.33 -5.52,12.57 0,5.24 1.89,9.43 5.67,12.57 3.78,3.14 8.95,4.71 15.51,4.71 6.16,0 11.78,-1.62 16.85,-4.87 5.07,-3.25 8.8,-8.22 11.19,-14.92l7.75 22c-2.98,11.73 -8.8,20.58 -17.45,26.55 -8.65,5.97 -20.03,8.96 -34.15,8.96zm136.3 -2.83l0 -170.31 56.67 0 0 170.31 -56.67 0zm28.33 -189.16c-10.34,0 -18.69,-3.04 -25.05,-9.11 -6.36,-6.08 -9.54,-13.62 -9.54,-22.62 0,-9.01 3.18,-16.55 9.54,-22.62 6.36,-6.08 14.71,-9.11 25.05,-9.11 10.34,0 18.69,2.88 25.05,8.64 6.36,5.76 9.55,13.14 9.55,22.15 0,9.43 -3.13,17.23 -9.39,23.41 -6.27,6.18 -14.66,9.27 -25.2,9.27zm56.67 189.16l0 -35.19 90.67 -109.98 9.54 19.17 -98.12 0 0 -44.31 144.05 0 0 34.88 -90.96 110.29 -9.55 -19.48 103.5 0 0 44.62 -149.12 0z"/>
  </g>
 </g>
</svg>
