<?xml version="1.0" encoding="UTF-8"?>
<!DOCTYPE svg PUBLIC "-//W3C//DTD SVG 1.0//EN" "http://www.w3.org/TR/2001/REC-SVG-20010904/DTD/svg10.dtd">
<!-- Creator: CorelDRAW -->
<svg xmlns="http://www.w3.org/2000/svg" xml:space="preserve" width="317.568mm" height="44.2387mm" version="1.0" style="shape-rendering:geometricPrecision; text-rendering:geometricPrecision; image-rendering:optimizeQuality; fill-rule:evenodd; clip-rule:evenodd"
viewBox="0 0 31749 4422.78"
 xmlns:xlink="http://www.w3.org/1999/xlink"
 xmlns:xodm="http://www.corel.com/coreldraw/odm/2003">
 <defs>
  <style type="text/css">
   <![CDATA[
    .fil1 {fill:#16A34A;fill-rule:nonzero}
    .fil0 {fill:white;fill-rule:nonzero}
   ]]>
  </style>
 </defs>
 <g id="Camada_x0020_1">
  <metadata id="CorelCorpID_0Corel-Layer"/>
  <g id="_2810316768432">
   <path class="fil0" d="M2211.38 0c1221.33,0 2211.39,990.07 2211.39,2211.38 0,1221.33 -990.07,2211.39 -2211.39,2211.39 -1221.32,0 -2211.38,-990.07 -2211.38,-2211.39 0,-1221.32 990.07,-2211.38 2211.38,-2211.38zm-1106.31 3802.6c-37.86,-11.18 -75.49,-23.02 -112.86,-35.49 90.63,71.11 187.67,134.39 290.04,189.01 -10.21,-137.05 -22.76,-293.51 -22.76,-293.51 0,0 544.26,83.31 813.91,0 0,0 246.17,291.18 512.55,489.62 291.76,-56.01 560.72,-176.08 791.62,-345.11 67.02,-115.26 263.39,-450.62 304.8,-655.96 0,0 201.11,-41.24 429.03,-393.84 49.73,-173.41 76.42,-356.54 76.42,-545.94 0,-139.79 -14.6,-276.16 -42.2,-407.75 -97.25,-156.68 -435.49,-345.71 -435.49,-345.71 -11.9,-142.75 -277.6,-725.68 -277.6,-725.68 27.86,-4.65 53.82,-8.02 77.97,-10.3 -319.67,-279.07 -730.03,-456.81 -1181.06,-483.39 164.6,107.95 270.35,216.11 270.35,216.11 -138.8,55.52 -475.85,459.99 -475.85,459.99 -261.72,-107.07 -836.72,-75.36 -836.72,-75.36 -4.44,-131.24 14.82,-283.65 32.59,-392.2 -510.25,258.37 -893.2,731.56 -1030.05,1300.61l474.03 -222.37c0,0 237.92,682.05 277.57,733.61 0,0 -269.65,622.51 -277.57,697.85 0,0 -411.52,-187.1 -471.9,-313.2l-9.53 -0.41c54.92,246.37 155.72,475.43 293.14,677.65 22.51,6.04 45.18,11.73 67.99,16.99 126.81,179.59 283.02,336.88 461.57,464.8zm757.16 -1496.08l517.49 696.01c0,0 844.63,-238.08 844.63,-261.76 0,-23.9 0,-844.69 0,-844.69l-779.22 -321.19 -582.91 731.63z"/>
   <path class="fil0" d="M5857.35 4182.64l0 -2816.77 -917.17 0 0 -654.6 2497.63 0 0 654.6 -917.15 0 0 2816.77 -663.31 0zm2535.84 39.67c-234.75,0 -442.89,-59.51 -624.41,-178.53 -181.54,-119.02 -324.84,-281.84 -429.93,-488.47 -105.08,-206.63 -157.63,-442.19 -157.63,-706.68 0,-267.79 52.55,-505.01 157.63,-711.63 105.09,-206.63 248.4,-368.62 429.93,-485.99 181.52,-117.36 389.65,-176.05 624.41,-176.05 232.01,0 439.47,58.69 622.36,176.05 182.88,117.37 326.2,278.54 429.92,483.51 103.71,204.98 155.59,443.02 155.59,714.11 0,264.48 -51.88,500.05 -155.59,706.68 -103.72,206.63 -247.04,369.45 -429.92,488.47 -182.88,119.02 -390.34,178.53 -622.36,178.53zm0 -634.76c106.45,0 201.99,-29.75 286.6,-89.27 84.63,-59.51 151.5,-144.63 200.64,-255.39 49.14,-110.75 73.69,-242.17 73.69,-394.25 0,-155.38 -24.55,-287.63 -73.69,-396.73 -49.14,-109.09 -116.01,-193.4 -200.64,-252.91 -84.61,-59.52 -180.15,-89.27 -286.6,-89.27 -106.45,0 -201.99,29.75 -286.62,89.27 -84.62,59.51 -152.17,143.81 -202.68,252.91 -50.5,109.1 -75.74,241.35 -75.74,396.73 0,152.08 25.24,283.5 75.74,394.25 50.51,110.75 118.06,195.88 202.68,255.39 84.63,59.52 180.17,89.27 286.62,89.27zm1454.9 595.09l0 -2668 610.07 0 0 753.78 -85.98 -218.2c65.51,-188.44 170.6,-331.44 315.28,-428.96 144.67,-97.53 320.73,-146.29 528.17,-146.29l0 714.11c-27.28,-3.31 -51.85,-5.79 -73.68,-7.44 -21.84,-1.66 -45.05,-2.48 -69.61,-2.48 -174.7,0 -315.96,60.34 -423.78,181.01 -107.81,120.67 -161.73,308.29 -161.73,562.86l0 1259.61 -638.74 0zm2613.63 39.67c-237.48,0 -449.02,-58.68 -634.64,-176.05 -185.61,-117.36 -330.97,-280.19 -436.07,-488.47 -105.08,-208.29 -157.62,-444.67 -157.62,-709.15 0,-267.79 52.54,-505.01 157.62,-711.63 105.1,-206.63 250.46,-368.62 436.07,-485.99 185.62,-117.36 397.16,-176.05 634.64,-176.05 232.02,0 434.01,58.69 605.98,176.05 171.97,117.37 298.9,285.15 380.79,503.35l-495.43 322.35c-57.33,-125.64 -128.98,-218.21 -214.97,-277.71 -85.98,-59.52 -179.47,-89.27 -280.46,-89.27 -109.19,0 -207.46,29.75 -294.81,89.27 -87.35,59.51 -156.27,143.81 -206.78,252.91 -50.49,109.1 -75.74,241.35 -75.74,396.73 0,155.38 25.25,287.63 75.74,396.73 50.51,109.09 119.43,193.4 206.78,252.91 87.35,59.52 185.61,89.27 294.81,89.27 101,0 194.48,-28.92 280.46,-86.79 85.99,-57.86 157.64,-151.25 214.97,-280.18l495.43 327.3c-81.89,214.9 -208.82,381.03 -380.79,498.39 -171.97,117.37 -373.96,176.05 -605.98,176.05zm2241.04 0c-251.13,0 -471.54,-59.51 -661.26,-178.53 -189.71,-119.02 -336.44,-281.84 -440.16,-488.47 -103.72,-206.63 -155.58,-442.19 -155.58,-706.68 0,-267.79 51.17,-505.01 153.53,-711.63 102.36,-206.63 242.26,-368.62 419.7,-485.99 177.42,-117.36 378.05,-176.05 601.88,-176.05 215.65,0 410.14,55.38 583.46,166.13 173.35,110.75 310.5,269.44 411.51,476.07 101,206.63 151.5,453.76 151.5,741.39 0,29.75 -1.38,63.64 -4.1,101.66 -2.74,38.02 -5.47,73.56 -8.19,106.62l-1789.3 0 0 -451.28 1453.54 0 -245.67 133.89c0,-138.85 -23.19,-259.53 -69.6,-362.01 -46.41,-102.48 -110.54,-182.65 -192.44,-240.52 -81.89,-57.86 -177.43,-86.78 -286.61,-86.78 -109.19,0 -205.41,28.92 -288.67,86.78 -83.25,57.87 -148.07,138.86 -194.48,243 -46.41,104.14 -69.61,227.29 -69.61,369.46l0 119.01c0,145.47 26.62,273.58 79.85,384.33 53.23,110.75 128.29,195.06 225.19,252.92 96.9,57.86 210.87,86.78 341.89,86.78 117.38,0 220.42,-21.48 309.13,-64.46 88.71,-42.98 169.92,-107.45 243.62,-193.41l339.85 446.32c-101,138.86 -227.92,245.48 -380.79,319.87 -152.86,74.38 -328.93,111.57 -528.19,111.57zm2257.41 0c-207.45,0 -394.43,-57.03 -560.94,-171.09 -166.51,-114.06 -298.22,-273.57 -395.12,-478.55 -96.9,-204.98 -145.34,-446.32 -145.34,-724.03 0,-281.01 48.45,-524.01 145.34,-728.99 96.91,-204.97 228.61,-363.66 395.12,-476.07 166.51,-112.4 353.49,-168.61 560.94,-168.61 185.62,0 348.04,49.59 487.25,148.77 139.22,99.19 247.03,249.61 323.47,451.28 76.42,201.67 114.63,459.55 114.63,773.62 0,310.77 -36.84,567.82 -110.53,771.14 -73.71,203.33 -179.49,354.58 -317.33,453.76 -137.86,99.19 -303.67,148.77 -497.49,148.77zm110.56 -634.76c103.71,0 197.9,-29.75 282.51,-89.27 84.63,-59.51 152.18,-144.63 202.68,-255.39 50.51,-110.75 75.74,-242.17 75.74,-394.25 0,-155.38 -25.23,-287.63 -75.74,-396.73 -50.5,-109.09 -118.05,-193.4 -202.68,-252.91 -84.61,-59.52 -178.8,-89.27 -282.51,-89.27 -106.46,0 -201.99,29.75 -286.62,89.27 -84.62,59.51 -152.17,143.81 -202.68,252.91 -50.5,109.1 -75.74,241.35 -75.74,396.73 0,152.08 25.24,283.5 75.74,394.25 50.51,110.75 118.06,195.88 202.68,255.39 84.63,59.52 180.16,89.27 286.62,89.27zm577.33 595.09l0 -545.51 12.28 -793.45 -40.95 -788.5 0 -1552.2 638.73 0 0 3679.65 -610.06 0zm2069.06 39.67c-234.74,0 -442.88,-59.51 -624.4,-178.53 -181.54,-119.02 -324.84,-281.84 -429.93,-488.47 -105.09,-206.63 -157.63,-442.19 -157.63,-706.68 0,-267.79 52.54,-505.01 157.63,-711.63 105.09,-206.63 248.4,-368.62 429.93,-485.99 181.52,-117.36 389.65,-176.05 624.4,-176.05 232.02,0 439.48,58.69 622.37,176.05 182.88,117.37 326.19,278.54 429.92,483.51 103.71,204.98 155.59,443.02 155.59,714.11 0,264.48 -51.88,500.05 -155.59,706.68 -103.73,206.63 -247.04,369.45 -429.92,488.47 -182.88,119.02 -390.34,178.53 -622.37,178.53zm0 -634.76c106.46,0 202,-29.75 286.62,-89.27 84.61,-59.51 151.49,-144.63 200.63,-255.39 49.13,-110.75 73.69,-242.17 73.69,-394.25 0,-155.38 -24.56,-287.63 -73.69,-396.73 -49.14,-109.09 -116.02,-193.4 -200.63,-252.91 -84.62,-59.52 -180.16,-89.27 -286.62,-89.27 -106.45,0 -201.99,29.75 -286.61,89.27 -84.62,59.51 -152.18,143.81 -202.67,252.91 -50.51,109.1 -75.76,241.35 -75.76,396.73 0,152.08 25.25,283.5 75.76,394.25 50.49,110.75 118.05,195.88 202.67,255.39 84.62,59.52 180.16,89.27 286.61,89.27zm1454.9 595.09l0 -2668 610.08 0 0 753.78 -85.98 -218.2c65.51,-188.44 170.61,-331.44 315.27,-428.96 144.67,-97.53 320.73,-146.29 528.19,-146.29l0 714.11c-27.29,-3.31 -51.87,-5.79 -73.69,-7.44 -21.84,-1.66 -45.06,-2.48 -69.61,-2.48 -174.7,0 -315.96,60.34 -423.79,181.01 -107.81,120.67 -161.72,308.29 -161.72,562.86l0 1259.61 -638.75 0z"/>
   <path class="fil1" d="M23173.36 4182.64l0 -3471.37 1339.22 0c436.41,0 772.29,114.88 1007.61,344.65 235.32,229.77 352.99,543.03 352.99,939.75 0,261.19 -54.2,486.82 -162.59,676.92 -108.39,190.1 -261.72,335.57 -459.96,436.4 -198.24,100.84 -434.28,151.25 -708.11,151.25l-898.51 0 376.52 -411.61 0 1334 -847.17 0zm1852.65 0l-744.49 -1264.57 902.8 0 748.76 1264.57 -907.08 0zm-1005.48 -1229.86l-376.52 -451.28 847.16 0c176.86,0 308.78,-44.63 395.78,-133.9 87,-89.27 130.5,-213.25 130.5,-371.94 0,-161.99 -43.5,-287.62 -130.5,-376.89 -87,-89.27 -218.93,-133.9 -395.78,-133.9l-847.16 0 376.52 -451.28 0 1919.18zm3483.23 1229.86l0 -500.87 -55.62 -123.98 0 -922.39c0,-148.77 -39.23,-263.66 -117.67,-344.66 -78.44,-80.99 -203.24,-121.49 -374.38,-121.49 -111.24,0 -223.91,20.65 -338.02,61.98 -114.09,41.33 -211.08,98.36 -290.95,171.09l-273.83 -639.72c131.21,-99.19 288.81,-176.05 472.78,-230.6 183.99,-54.55 367.26,-81.82 549.81,-81.82 376.52,0 668.17,100.01 874.97,300.03 206.8,200.01 310.2,513.26 310.2,939.75l0 1492.69 -757.31 0zm-684.58 44.63c-185.41,0 -342.3,-36.36 -470.65,-109.09 -128.36,-72.74 -226.05,-171.92 -293.09,-297.55 -67.02,-125.64 -100.55,-266.14 -100.55,-421.53 0,-165.31 36.36,-308.29 109.1,-428.96 72.73,-120.67 184.69,-213.24 335.87,-277.71 151.18,-64.46 346.57,-96.71 586.18,-96.71l547.66 0 0 490.96 -436.41 0c-131.22,0 -223.2,24.79 -275.97,74.38 -52.78,49.6 -79.16,115.71 -79.16,198.37 0,82.65 27.1,148.77 81.3,198.36 54.2,49.59 128.36,74.38 222.49,74.38 88.43,0 169.01,-25.62 241.74,-76.86 72.74,-51.25 126.22,-129.77 160.46,-235.56l111.23 347.14c-42.78,185.13 -126.22,324.82 -250.3,419.04 -124.08,94.23 -287.38,141.34 -489.9,141.34zm1763.21 -44.63l0 -2687.84 812.94 0 0 2687.84 -812.94 0zm406.47 -2985.38c-148.32,0 -268.13,-47.94 -359.41,-143.81 -91.28,-95.88 -136.92,-214.9 -136.92,-357.05 0,-142.16 45.64,-261.19 136.92,-357.06 91.28,-95.88 211.09,-143.81 359.41,-143.81 148.32,0 268.13,45.46 359.41,136.38 91.28,90.92 136.92,207.46 136.92,349.62 0,148.77 -44.93,271.92 -134.78,369.45 -89.86,97.53 -210.37,146.29 -361.55,146.29zm620.82 2985.38l0 -555.42 1300.71 -1735.68 136.92 302.51 -1407.67 0 0 -699.24 2066.58 0 0 550.46 -1304.99 1740.64 -136.92 -307.46 1484.69 0 0 704.2 -2139.32 0z"/>
  </g>
 </g>
</svg>
