<?xml version="1.0" encoding="UTF-8"?>
<!DOCTYPE svg PUBLIC "-//W3C//DTD SVG 1.0//EN" "http://www.w3.org/TR/2001/REC-SVG-20010904/DTD/svg10.dtd">
<!-- Creator: CorelDRAW -->
<svg xmlns="http://www.w3.org/2000/svg" xml:space="preserve" width="11.0085mm" height="11.0085mm" version="1.0" style="shape-rendering:geometricPrecision; text-rendering:geometricPrecision; image-rendering:optimizeQuality; fill-rule:evenodd; clip-rule:evenodd"
viewBox="0 0 97.59 97.59"
 xmlns:xlink="http://www.w3.org/1999/xlink"
 xmlns:xodm="http://www.corel.com/coreldraw/odm/2003">
 <defs>
  <style type="text/css">
   <![CDATA[
    .fil1 {fill:none}
    .fil0 {fill:white;fill-rule:nonzero}
   ]]>
  </style>
 </defs>
 <g id="Camada_x0020_1">
  <metadata id="CorelCorpID_0Corel-Layer"/>
  <path class="fil0" d="M23.68 18.38c-0.92,-0.92 -0.92,-2.4 0,-3.32 0.92,-0.92 2.4,-0.92 3.32,0l33.96 33.97 0.04 0.04 0.04 0.04 12.86 12.86c0.92,0.92 0.92,2.4 0,3.32 -0.92,0.92 -2.4,0.92 -3.32,0l-11.24 -11.24 -8.9 8.9c-0.92,0.92 -2.4,0.92 -3.32,0l-16.51 -16.52c-1.84,-1.78 -3.67,-3.76 -5.07,-6.02 -1.53,-2.47 -2.56,-5.25 -2.56,-8.43 0.01,-2.36 0.56,-4.66 1.57,-6.72 0.63,-1.29 1.45,-2.48 2.43,-3.55l-3.31 -3.31zm-15.66 64.7l0 -12.42 5.3 0c1.73,0 3.07,0.4 4.03,1.2 0.96,0.8 1.44,1.9 1.44,3.31 0,0.92 -0.22,1.72 -0.66,2.39 -0.44,0.67 -1.06,1.18 -1.86,1.53 -0.8,0.35 -1.76,0.53 -2.87,0.53l-3.78 0 1.28 -1.26 0 4.72 -2.87 0zm7.9 0l-3.1 -4.51 3.07 0 3.14 4.51 -3.11 0zm-5.02 -4.4l-1.28 -1.35 3.62 0c0.89,0 1.55,-0.19 1.99,-0.58 0.44,-0.38 0.66,-0.91 0.66,-1.59 0,-0.69 -0.22,-1.22 -0.66,-1.6 -0.44,-0.38 -1.1,-0.57 -1.99,-0.57l-3.62 0 1.28 -1.37 0 7.04zm14.71 4.54c-1.09,0 -2.04,-0.21 -2.87,-0.64 -0.82,-0.43 -1.46,-1.01 -1.91,-1.75 -0.45,-0.74 -0.67,-1.58 -0.67,-2.53 0,-0.96 0.22,-1.81 0.67,-2.55 0.44,-0.74 1.05,-1.32 1.82,-1.74 0.77,-0.42 1.64,-0.63 2.61,-0.63 0.94,0 1.78,0.2 2.53,0.59 0.75,0.4 1.35,0.96 1.78,1.7 0.44,0.74 0.66,1.62 0.66,2.65 0,0.11 -0.01,0.23 -0.02,0.36 -0.01,0.14 -0.02,0.26 -0.04,0.38l-7.75 0 0 -1.61 6.3 0 -1.06 0.48c0,-0.5 -0.1,-0.93 -0.3,-1.3 -0.2,-0.37 -0.48,-0.65 -0.83,-0.86 -0.35,-0.21 -0.77,-0.31 -1.24,-0.31 -0.47,0 -0.89,0.1 -1.25,0.31 -0.36,0.21 -0.64,0.5 -0.84,0.87 -0.2,0.37 -0.3,0.81 -0.3,1.32l0 0.43c0,0.52 0.12,0.98 0.35,1.37 0.23,0.4 0.56,0.7 0.98,0.91 0.42,0.21 0.91,0.31 1.48,0.31 0.51,0 0.95,-0.08 1.34,-0.23 0.38,-0.15 0.74,-0.38 1.06,-0.69l1.47 1.6c-0.44,0.5 -0.99,0.88 -1.65,1.14 -0.66,0.27 -1.43,0.4 -2.29,0.4zm6.46 -0.14l0 -9.55 2.64 0 0 2.61 -0.5 -0.76c0.33,-0.65 0.8,-1.14 1.41,-1.48 0.61,-0.34 1.3,-0.51 2.08,-0.51 0.88,0 1.64,0.22 2.3,0.67 0.66,0.44 1.09,1.12 1.3,2.03l-0.98 -0.27c0.32,-0.74 0.83,-1.34 1.53,-1.77 0.7,-0.44 1.51,-0.66 2.42,-0.66 0.76,0 1.43,0.15 2.01,0.45 0.59,0.3 1.05,0.76 1.38,1.38 0.34,0.62 0.51,1.42 0.51,2.39l0 5.46 -2.77 0 0 -5.04c0,-0.77 -0.16,-1.34 -0.48,-1.7 -0.32,-0.37 -0.77,-0.55 -1.35,-0.55 -0.4,0 -0.76,0.09 -1.08,0.27 -0.32,0.18 -0.57,0.46 -0.74,0.83 -0.18,0.37 -0.27,0.83 -0.27,1.4l0 4.79 -2.77 0 0 -5.04c0,-0.77 -0.16,-1.34 -0.47,-1.7 -0.31,-0.37 -0.76,-0.55 -1.34,-0.55 -0.4,0 -0.76,0.09 -1.08,0.27 -0.32,0.18 -0.57,0.46 -0.75,0.83 -0.18,0.37 -0.27,0.83 -0.27,1.4l0 4.79 -2.77 0zm23.23 0.14c-1.02,0 -1.92,-0.21 -2.71,-0.64 -0.79,-0.43 -1.41,-1.01 -1.86,-1.75 -0.46,-0.74 -0.68,-1.58 -0.68,-2.53 0,-0.96 0.23,-1.81 0.68,-2.55 0.46,-0.74 1.08,-1.32 1.86,-1.74 0.79,-0.42 1.69,-0.63 2.71,-0.63 1.01,0 1.9,0.21 2.7,0.63 0.79,0.42 1.41,1 1.86,1.73 0.45,0.73 0.67,1.59 0.67,2.55 0,0.95 -0.23,1.79 -0.67,2.53 -0.45,0.74 -1.07,1.32 -1.86,1.75 -0.79,0.43 -1.69,0.64 -2.7,0.64zm0 -2.27c0.46,0 0.87,-0.11 1.24,-0.32 0.37,-0.21 0.66,-0.52 0.87,-0.91 0.21,-0.4 0.32,-0.87 0.32,-1.41 0,-0.56 -0.11,-1.03 -0.32,-1.42 -0.21,-0.39 -0.5,-0.69 -0.87,-0.91 -0.37,-0.21 -0.78,-0.32 -1.24,-0.32 -0.46,0 -0.88,0.11 -1.24,0.32 -0.37,0.21 -0.66,0.52 -0.88,0.91 -0.22,0.39 -0.33,0.86 -0.33,1.42 0,0.54 0.11,1.01 0.33,1.41 0.22,0.4 0.51,0.7 0.88,0.91 0.37,0.21 0.78,0.32 1.24,0.32zm9.4 2.13l-4.01 -9.55 2.86 0 3.34 8.22 -1.42 0 3.46 -8.22 2.66 0 -4.03 9.55 -2.86 0zm12.49 0.14c-1.09,0 -2.04,-0.21 -2.87,-0.64 -0.82,-0.43 -1.46,-1.01 -1.91,-1.75 -0.45,-0.74 -0.67,-1.58 -0.67,-2.53 0,-0.96 0.22,-1.81 0.67,-2.55 0.44,-0.74 1.05,-1.32 1.82,-1.74 0.77,-0.42 1.64,-0.63 2.61,-0.63 0.94,0 1.78,0.2 2.53,0.59 0.75,0.4 1.35,0.96 1.78,1.7 0.44,0.74 0.66,1.62 0.66,2.65 0,0.11 -0.01,0.23 -0.02,0.36 -0.01,0.14 -0.02,0.26 -0.04,0.38l-7.75 0 0 -1.61 6.3 0 -1.06 0.48c0,-0.5 -0.1,-0.93 -0.3,-1.3 -0.2,-0.37 -0.48,-0.65 -0.83,-0.86 -0.35,-0.21 -0.77,-0.31 -1.24,-0.31 -0.47,0 -0.89,0.1 -1.25,0.31 -0.36,0.21 -0.64,0.5 -0.84,0.87 -0.2,0.37 -0.3,0.81 -0.3,1.32l0 0.43c0,0.52 0.12,0.98 0.35,1.37 0.23,0.4 0.56,0.7 0.98,0.91 0.42,0.21 0.91,0.31 1.48,0.31 0.51,0 0.95,-0.08 1.34,-0.23 0.38,-0.15 0.74,-0.38 1.06,-0.69l1.47 1.6c-0.44,0.5 -0.99,0.88 -1.65,1.14 -0.66,0.27 -1.43,0.4 -2.29,0.4zm6.46 -0.14l0 -9.55 2.64 0 0 2.7 -0.37 -0.78c0.28,-0.67 0.74,-1.19 1.37,-1.53 0.63,-0.35 1.39,-0.52 2.29,-0.52l0 2.55c-0.12,-0.01 -0.23,-0.02 -0.32,-0.03 -0.09,-0.01 -0.2,-0.01 -0.3,-0.01 -0.76,0 -1.37,0.22 -1.84,0.65 -0.47,0.43 -0.7,1.1 -0.7,2.01l0 4.51 -2.77 0zm-42.88 -61.48c-1.27,-0.24 -2.1,-1.47 -1.86,-2.74 0.24,-1.27 1.47,-2.1 2.74,-1.86 1.61,0.31 3.09,0.85 4.57,1.71 0.87,0.51 1.73,1.12 2.6,1.86 1.37,-1.16 2.71,-2.01 4.11,-2.62 2.01,-0.88 4.07,-1.23 6.44,-1.23 4.2,0.01 8.02,1.72 10.77,4.47 2.76,2.75 4.47,6.57 4.47,10.77 0,2.94 -0.89,5.54 -2.25,7.88 -1.28,2.21 -2.97,4.14 -4.69,5.89 -0.91,0.92 -2.39,0.93 -3.31,0.03 -0.92,-0.91 -0.93,-2.39 -0.03,-3.31 1.49,-1.51 2.93,-3.16 3.98,-4.95 0.97,-1.67 1.61,-3.5 1.61,-5.53 0,-2.91 -1.18,-5.55 -3.09,-7.46l0 -0.01c-1.91,-1.91 -4.55,-3.09 -7.46,-3.09 -1.75,0.01 -3.22,0.25 -4.57,0.83 -1.4,0.61 -2.78,1.63 -4.32,3.17l-0.01 0.01c-0.92,0.91 -2.4,0.91 -3.31,-0.01 -1.16,-1.17 -2.22,-2.03 -3.28,-2.64 -1,-0.58 -2.01,-0.95 -3.1,-1.16zm15.28 29.13l-25.72 -25.72c-0.62,0.7 -1.13,1.48 -1.54,2.31 -0.7,1.43 -1.09,3.02 -1.09,4.65 0.01,2.21 0.75,4.18 1.85,5.96 1.17,1.88 2.75,3.58 4.35,5.14l0.16 0.14 14.76 14.76 7.24 -7.24z"/>
  <rect class="fil1" x="-0" y="-0" width="97.59" height="97.59"/>
 </g>
</svg>
