<?xml version="1.0" encoding="UTF-8"?>
<!DOCTYPE svg PUBLIC "-//W3C//DTD SVG 1.0//EN" "http://www.w3.org/TR/2001/REC-SVG-20010904/DTD/svg10.dtd">
<!-- Creator: CorelDRAW -->
<svg xmlns="http://www.w3.org/2000/svg" xml:space="preserve" width="11.0085mm" height="11.0085mm" version="1.0" style="shape-rendering:geometricPrecision; text-rendering:geometricPrecision; image-rendering:optimizeQuality; fill-rule:evenodd; clip-rule:evenodd"
viewBox="0 0 133.5 133.5"
 xmlns:xlink="http://www.w3.org/1999/xlink"
 xmlns:xodm="http://www.corel.com/coreldraw/odm/2003">
 <defs>
  <style type="text/css">
   <![CDATA[
    .fil1 {fill:none}
    .fil0 {fill:white;fill-rule:nonzero}
   ]]>
  </style>
 </defs>
 <g id="Camada_x0020_1">
  <metadata id="CorelCorpID_0Corel-Layer"/>
  <g id="_1743095827200">
   <path class="fil0" d="M87.14 56.94c2.18,-2.15 4.35,-4.49 5.95,-7.06 1.52,-2.44 2.53,-5.13 2.53,-8.13 0.01,-3.98 -1.61,-7.6 -4.22,-10.21l-0.01 0c-2.61,-2.61 -6.22,-4.23 -10.21,-4.23 -2.4,0 -4.4,0.32 -6.25,1.13 -1.92,0.84 -3.81,2.23 -5.92,4.34 -1.25,1.25 -3.27,1.26 -4.52,0.01l-0.01 -0.01c-2.11,-2.11 -3.99,-3.5 -5.92,-4.34 -1.85,-0.81 -3.85,-1.13 -6.25,-1.13 -3.99,0 -7.6,1.61 -10.21,4.22l0 0.01c-2.61,2.61 -4.23,6.22 -4.23,10.21 0,3.02 1.01,5.72 2.52,8.15 1.64,2.64 3.87,5.02 6.12,7.19l20.24 20.23 20.39 -20.38zm-51.42 55.67c-1.36,0 -2.66,-0.18 -3.91,-0.55 -1.25,-0.36 -2.25,-0.84 -3.01,-1.42l1.34 -2.96c0.73,0.52 1.59,0.94 2.59,1.27 0.99,0.33 2,0.5 3.02,0.5 0.78,0 1.4,-0.08 1.88,-0.23 0.48,-0.15 0.83,-0.37 1.06,-0.64 0.23,-0.28 0.34,-0.59 0.34,-0.95 0,-0.45 -0.18,-0.81 -0.53,-1.08 -0.36,-0.27 -0.82,-0.49 -1.41,-0.66 -0.58,-0.17 -1.23,-0.33 -1.93,-0.49 -0.7,-0.15 -1.41,-0.34 -2.11,-0.57 -0.7,-0.23 -1.35,-0.52 -1.93,-0.87 -0.58,-0.36 -1.06,-0.82 -1.42,-1.41 -0.36,-0.58 -0.55,-1.33 -0.55,-2.23 0,-0.97 0.26,-1.86 0.79,-2.66 0.53,-0.8 1.32,-1.44 2.38,-1.92 1.06,-0.48 2.39,-0.72 3.99,-0.72 1.07,0 2.12,0.12 3.16,0.38 1.03,0.25 1.95,0.63 2.74,1.13l-1.21 2.99c-0.79,-0.45 -1.58,-0.79 -2.38,-1.01 -0.79,-0.22 -1.57,-0.33 -2.33,-0.33 -0.76,0 -1.38,0.09 -1.87,0.27 -0.49,0.18 -0.83,0.41 -1.04,0.69 -0.21,0.28 -0.32,0.61 -0.32,0.98 0,0.44 0.18,0.79 0.53,1.06 0.36,0.27 0.83,0.48 1.41,0.64 0.58,0.16 1.23,0.32 1.93,0.49 0.7,0.16 1.41,0.35 2.11,0.56 0.7,0.21 1.35,0.49 1.93,0.85 0.58,0.36 1.06,0.83 1.42,1.41 0.36,0.58 0.55,1.32 0.55,2.21 0,0.95 -0.27,1.83 -0.8,2.62 -0.53,0.79 -1.33,1.43 -2.39,1.92 -1.06,0.49 -2.4,0.73 -4.02,0.73zm17.65 -0.29l0 -2.55 -0.24 -0.56 0 -4.56c0,-0.81 -0.25,-1.44 -0.74,-1.89 -0.49,-0.45 -1.25,-0.68 -2.27,-0.68 -0.7,0 -1.38,0.11 -2.05,0.33 -0.67,0.22 -1.24,0.51 -1.71,0.89l-1.36 -2.65c0.71,-0.5 1.57,-0.89 2.57,-1.16 1,-0.28 2.02,-0.41 3.06,-0.41 1.99,0 3.54,0.47 4.64,1.41 1.1,0.94 1.65,2.4 1.65,4.39l0 7.45 -3.54 0zm-3.98 0.19c-1.02,0 -1.89,-0.17 -2.62,-0.52 -0.73,-0.35 -1.29,-0.82 -1.67,-1.42 -0.39,-0.6 -0.58,-1.27 -0.58,-2.01 0,-0.78 0.19,-1.46 0.57,-2.04 0.38,-0.58 0.98,-1.04 1.81,-1.37 0.82,-0.33 1.9,-0.5 3.23,-0.5l3.47 0 0 2.21 -3.06 0c-0.89,0 -1.5,0.15 -1.83,0.44 -0.33,0.29 -0.5,0.65 -0.5,1.09 0,0.49 0.19,0.87 0.57,1.15 0.38,0.28 0.9,0.43 1.57,0.43 0.63,0 1.2,-0.15 1.7,-0.45 0.5,-0.3 0.87,-0.74 1.09,-1.32l0.58 1.75c-0.28,0.84 -0.78,1.48 -1.5,1.92 -0.73,0.44 -1.67,0.65 -2.82,0.65zm10.95 -0.19l0 -18.01 3.79 0 0 18.01 -3.79 0zm10.85 0l-5.49 -13.06 3.91 0 4.56 11.24 -1.94 0 4.73 -11.24 3.64 0 -5.51 13.06 -3.91 0zm18.45 0l0 -2.55 -0.24 -0.56 0 -4.56c0,-0.81 -0.25,-1.44 -0.74,-1.89 -0.49,-0.45 -1.25,-0.68 -2.27,-0.68 -0.7,0 -1.38,0.11 -2.05,0.33 -0.67,0.22 -1.24,0.51 -1.71,0.89l-1.36 -2.65c0.71,-0.5 1.57,-0.89 2.57,-1.16 1,-0.28 2.02,-0.41 3.06,-0.41 1.99,0 3.54,0.47 4.64,1.41 1.1,0.94 1.65,2.4 1.65,4.39l0 7.45 -3.54 0zm-3.98 0.19c-1.02,0 -1.89,-0.17 -2.62,-0.52 -0.73,-0.35 -1.29,-0.82 -1.67,-1.42 -0.39,-0.6 -0.58,-1.27 -0.58,-2.01 0,-0.78 0.19,-1.46 0.57,-2.04 0.38,-0.58 0.98,-1.04 1.81,-1.37 0.82,-0.33 1.9,-0.5 3.23,-0.5l3.47 0 0 2.21 -3.06 0c-0.89,0 -1.5,0.15 -1.83,0.44 -0.33,0.29 -0.5,0.65 -0.5,1.09 0,0.49 0.19,0.87 0.57,1.15 0.38,0.28 0.9,0.43 1.57,0.43 0.63,0 1.2,-0.15 1.7,-0.45 0.5,-0.3 0.87,-0.74 1.09,-1.32l0.58 1.75c-0.28,0.84 -0.78,1.48 -1.5,1.92 -0.73,0.44 -1.67,0.65 -2.82,0.65zm10.95 -0.19l0 -13.06 3.62 0 0 3.69 -0.51 -1.07c0.39,-0.92 1.01,-1.62 1.87,-2.1 0.86,-0.48 1.9,-0.72 3.13,-0.72l0 3.49c-0.16,-0.02 -0.31,-0.03 -0.44,-0.04 -0.13,-0.01 -0.27,-0.01 -0.41,-0.01 -1.04,0 -1.87,0.3 -2.51,0.89 -0.64,0.59 -0.96,1.51 -0.96,2.75l0 6.17 -3.79 0zm1.94 -59.05c-1.93,3.1 -4.43,5.8 -6.91,8.25l-22.6 22.62c-1.25,1.25 -3.29,1.25 -4.54,0l-22.46 -22.46c-2.55,-2.48 -5.11,-5.22 -7.07,-8.38 -2.1,-3.38 -3.5,-7.18 -3.5,-11.54 0,-5.76 2.34,-10.97 6.11,-14.75 3.79,-3.77 9,-6.11 14.75,-6.11 3.25,0 6.06,0.48 8.81,1.68 1.92,0.83 3.75,2 5.63,3.59 1.88,-1.59 3.71,-2.76 5.63,-3.59 2.75,-1.2 5.56,-1.68 8.81,-1.68 5.76,0 10.97,2.34 14.75,6.11 3.76,3.78 6.1,8.99 6.1,14.75 0.01,4.34 -1.4,8.14 -3.5,11.51z"/>
   <rect class="fil1" x="-0" y="-0" width="133.5" height="133.5"/>
  </g>
 </g>
</svg>
